<?xml version="1.0" encoding="UTF-8"?>
<!--Generator: Apple Native CoreSVG 341-->
<!DOCTYPE svg
PUBLIC "-//W3C//DTD SVG 1.1//EN"
       "http://www.w3.org/Graphics/SVG/1.1/DTD/svg11.dtd">
<svg version="1.1" xmlns="http://www.w3.org/2000/svg" xmlns:xlink="http://www.w3.org/1999/xlink" viewBox="0 0 814.062 814.688">
 <g>
  <path d="M814.062 407.188C814.062 631.25 631.25 814.062 406.875 814.062C182.812 814.062 0 631.25 0 407.188C0 182.812 182.812 0 406.875 0C631.25 0 814.062 182.812 814.062 407.188ZM532.5 519.062C504.062 536.875 466.562 555.938 406.875 555.938C347.188 555.938 310 536.562 280.938 519.062C273.75 515.312 265 519.062 265 527.812C265 554.062 322.188 611.25 406.875 611.25C491.25 611.25 548.75 554.062 548.75 527.812C548.75 519.062 540 515.312 532.5 519.062ZM237.188 314.062C237.188 345.625 259.062 368.75 284.062 368.75C309.062 368.75 331.25 345.625 331.25 314.062C331.25 282.188 309.375 258.75 284.062 258.75C258.75 258.75 237.188 282.188 237.188 314.062ZM482.812 314.062C482.812 345.625 505 368.75 529.688 368.75C555 368.75 576.875 345.625 576.875 314.062C576.875 282.188 555 258.75 529.688 258.75C504.688 258.75 482.812 282.188 482.812 314.062Z" fill="white" fill-opacity="0.85"/>
 </g>
</svg>
